HIERARCHY
ROOT Hips
{
	OFFSET 0.00000 0.00000 0.00000
	CHANNELS 6 Xposition Yposition Zposition Yrotation Zrotation Xrotation 
	JOINT Lumbar
	{
		OFFSET 0 0 0
		CHANNELS 3 Zrotation Xrotation Yrotation
		JOINT Neck
		{
			OFFSET 0.00 0.2701 0.00
			CHANNELS 3 Zrotation Xrotation Yrotation
			End Site
			{
				OFFSET 0.00 0.1379 0.00
			}
		}
		JOINT RightShoulder
		{
			OFFSET 0.0119 0.2289 0.1181
			CHANNELS 3 Zrotation Xrotation Yrotation
			JOINT RightElbow
			{
				OFFSET 0.00 -0.1475 0.00
				CHANNELS 2 Zrotation Yrotation
				JOINT RightWrist
				{
					OFFSET 0.00 -0.1605 0.00
					CHANNELS 2 Zrotation Xrotation
					End Site
					{
						OFFSET 0.0040 -0.1068 0.0006
					}
				}
			}
		}
		JOINT LeftShoulder
		{
			OFFSET 0.0119 0.2289 -0.1181
			CHANNELS 3 Zrotation Xrotation Yrotation
			JOINT LeftElbow
			{
				OFFSET 0.00 -0.1475 0.00
				CHANNELS 2 Zrotation Yrotation
				JOINT LeftWrist
				{
					OFFSET 0.00 -0.1605 0.00
					CHANNELS 2 Zrotation Xrotation
					End Site
					{
						OFFSET 0.0040 -0.1068 -0.0006
					}
				}
			}
		}
	}
	JOINT RightHip
	{
		OFFSET 0.0316 -0.0424 0.0458
		CHANNELS 3 Zrotation Xrotation Yrotation
		JOINT RightKnee
		{
			OFFSET 0.00 -0.2438 0.00
			CHANNELS 1 Zrotation
			JOINT RightAnkle
			{
				OFFSET 0.00 -0.2449 0.00
				CHANNELS 3 Zrotation Xrotation Yrotation
				End Site
				{
					OFFSET 0.1237 -0.0542 0.0051
				}
			}
		}
	}
	JOINT LeftHip
	{
		OFFSET 0.0316 -0.0424 -0.0458
		CHANNELS 3 Zrotation Xrotation Yrotation
		JOINT LeftKnee
		{
			OFFSET 0.00 -0.2438 0.00
			CHANNELS 1 Zrotation
			JOINT LeftAnkle
			{
				OFFSET 0.00 -0.2449 0.00
				CHANNELS 3 Zrotation Xrotation Yrotation
				End Site
				{
					OFFSET 0.1237 -0.0542 -0.0051
				}
			}
		}
	}
}
MOTION
Frames: 23
Frame Time: 0.02
-0.42028 0.56755 -0.33927 244.18075 0 -4.9577 2.55162 3.07994 1.53939 -20.46358 -6.17881 -1.49351 14.84901 -11.09285 41.18912 72.60976 72.75076 18.99723 -4.92083 13.10659 30.40778 -49.66279 87.12285 -108.93875 -31.43829 6.7908 11.14924 4.67757 9.98824 -27.16754 4.46724 0.3476 4.84602 5.80036 7.81545 -7.58318 -20.75782 12.13243 6.53962 6.10717
-0.41538 0.56782 -0.33869 243.14586 0 -4.85097 2.37959 2.88071 1.46294 -20.34204 -6.04765 -1.52717 14.62108 -11.10659 40.95511 72.73651 71.36258 19.80387 -5.09244 13.24223 30.59293 -49.92017 87.35709 -110.41434 -30.05188 7.25778 11.67179 4.31659 10.52044 -27.48931 4.08345 0.36566 5.09043 5.08601 7.38375 -6.84972 -19.45813 11.889 6.60993 6.40534
-0.4104 0.56815 -0.3385 242.13427 0 -4.74558 2.12369 2.66918 1.43006 -20.05099 -5.87538 -1.5099 14.21924 -11.11683 40.84683 72.87586 69.8377 20.44216 -5.28133 13.24511 30.75549 -50.21789 87.55962 -112.15038 -28.42884 7.81694 12.18368 3.98189 11.03955 -27.69234 3.64479 0.3461 5.27006 4.36867 6.96091 -6.21494 -18.02544 11.56667 6.58981 6.65196
-0.40545 0.56845 -0.33816 241.11301 0 -4.64617 1.89942 2.46899 1.37596 -19.82837 -5.72521 -1.51658 13.89158 -11.12645 40.71295 73.02137 68.42466 21.10495 -5.46051 13.28537 30.92558 -50.49436 87.77361 -113.72143 -26.95751 8.31901 12.69173 3.64212 11.56514 -27.92505 3.23129 0.34207 5.47173 3.67507 6.54222 -5.50399 -16.68665 11.2909 6.60037 6.89745
-0.40051 0.56877 -0.3377 240.08911 0 -4.518 1.69955 2.24483 1.32658 -19.6381 -5.55605 -1.51896 13.57954 -11.14971 40.44682 73.1219 66.7952 21.99176 -5.64931 13.41845 31.10215 -50.78438 87.99941 -115.48979 -25.29748 8.88498 13.23884 3.2714 12.09129 -28.25744 2.80967 0.34459 5.70746 2.88623 6.08579 -4.92359 -15.20126 10.9685 6.65433 7.24538
-0.39555 0.56906 -0.33758 239.07656 0 -4.45037 1.43084 2.06731 1.27868 -19.34322 -5.41812 -1.51837 13.19701 -11.14291 40.48213 73.31538 65.58487 22.37418 -5.82147 13.33111 31.26212 -51.05488 88.19306 -116.91282 -23.97257 9.34127 13.69933 2.97265 12.60978 -28.35478 2.39794 0.32395 5.85276 2.2949 5.71132 -4.10053 -13.9906 10.72332 6.5984 7.37184
-0.39045 0.56927 -0.33826 238.08023 0 -4.54962 0.98365 2.02465 1.21844 -18.7828 -5.38089 -1.52409 12.6447 -11.04344 41.3629 73.78399 65.58609 21.35576 -5.94398 12.63245 31.37735 -51.26659 88.30904 -117.26696 -23.6637 9.45376 13.94553 2.85969 13.13745 -27.83896 1.98736 0.25595 5.80227 2.25531 5.56083 -2.5206 -13.58491 10.73189 6.23926 6.85447
-0.38535 0.56946 -0.33926 237.09629 0 -4.70962 0.47233 2.02863 1.15937 -18.12707 -5.37663 -1.52834 12.03156 -10.91495 42.53497 74.34131 66.01093 19.84319 -6.04899 11.72361 31.47784 -51.45622 88.39333 -117.27186 -23.69526 9.45547 14.10085 2.81956 13.65182 -27.09203 1.5968 0.16469 5.65672 2.41375 5.49283 -0.70512 -13.45869 10.81741 5.77657 6.12435
-0.38028 0.56966 -0.34012 236.11215 0 -4.84227 -0.00386 2.00944 1.10362 -17.52663 -5.3548 -1.53203 11.45791 -10.80598 43.54535 74.84335 66.22975 18.58819 -6.16116 10.93369 31.58907 -51.65262 88.48999 -117.47184 -23.54973 9.52032 14.28295 2.7507 14.15571 -26.44413 1.22318 0.07926 5.52886 2.47797 5.38784 0.96327 -13.19636 10.85429 5.3754 5.52016
-0.37505 0.56985 -0.34095 235.10465 0 -4.97491 -0.50948 1.99881 1.03307 -16.86793 -5.34141 -1.53905 10.8267 -10.67061 44.6837 75.40875 66.50163 17.18923 -6.27651 10.03873 31.68367 -51.86431 88.59387 -117.53415 -23.48877 9.53628 14.52546 2.66474 14.73288 -25.80846 0.73654 0.01233 5.50337 2.55975 5.28169 2.80114 -12.96757 10.94611 4.9099 4.78918
-0.37018 0.57005 -0.34192 234.15007 0 -5.12065 -0.96643 1.98078 0.99313 -16.31233 -5.32002 -1.53951 10.30499 -10.58294 45.62318 75.86347 66.76415 15.97359 -6.38182 9.31636 31.80807 -52.03828 88.6759 -117.78845 -23.3376 9.62421 14.62136 2.63079 15.14942 -25.10518 0.49219 -0.09792 5.24675 2.65221 5.19657 4.33828 -12.73721 10.94276 4.55515 4.27441
-0.36625 0.5703 -0.34313 233.32484 0 -5.29926 -1.28561 1.93792 1.03677 -16.04626 -5.25861 -1.52206 10.08545 -10.63779 45.94049 75.98691 66.90843 15.39829 -6.45478 9.10509 32.0328 -52.11408 88.70277 -118.72918 -22.83798 9.95756 14.32827 2.72724 15.1691 -24.17643 0.9 -0.32334 4.34335 2.72489 5.15739 5.03151 -12.43452 10.65906 4.53031 4.39073
-0.36268 0.57056 -0.34447 232.55516 0 -5.4868 -1.5508 1.88492 1.11111 -15.89094 -5.19 -1.49835 9.98128 -10.74108 46.04722 75.99649 67.02685 15.02377 -6.51956 9.07798 32.28536 -52.15234 88.70924 -119.86079 -22.23987 10.36314 13.8917 2.87246 15.01993 -23.20603 1.55298 -0.59077 3.21737 2.80202 5.13517 5.40706 -12.12183 10.27738 4.62098 4.73477
-0.35898 0.5708 -0.34576 231.76857 0 -5.66265 -1.83225 1.83182 1.17157 -15.6987 -5.13149 -1.47785 9.83585 -10.81966 46.251 76.0608 67.15095 14.54839 -6.59412 8.97914 32.51601 -52.20727 88.72708 -120.85704 -21.69881 10.72221 13.52546 2.9923 14.91913 -22.31782 2.10255 -0.83836 2.21387 2.8772 5.09967 5.89855 -11.81342 9.93975 4.66029 4.98764
-0.35516 0.57108 -0.34702 230.94607 0 -5.87282 -2.15119 1.79956 1.23166 -15.44896 -5.04563 -1.45571 9.64355 -10.90815 46.45969 76.11589 67.31709 14.09271 -6.64346 8.825 32.78572 -52.26328 88.73552 -122.04586 -21.11829 11.13484 13.13569 3.12856 14.93596 -21.15441 2.62113 -1.09134 1.11501 2.9575 5.08986 6.51478 -11.51335 9.60558 4.69199 5.1844
-0.35168 0.57129 -0.34837 230.21285 0 -6.01286 -2.37807 1.72168 1.29997 -15.34337 -5.01414 -1.43556 9.57391 -10.98844 46.60384 76.16162 67.38189 13.6546 -6.7424 8.82924 32.98027 -52.3082 88.75836 -122.88428 -20.59129 11.45499 12.76046 3.2409 14.66995 -20.55733 3.25949 -1.34103 0.16562 3.02747 5.03039 6.79703 -11.19295 9.24141 4.76729 5.55069
-0.34905 0.57132 -0.34993 229.69998 0 -5.95658 -2.366 1.51334 1.38228 -15.63697 -5.13875 -1.42205 9.84299 -11.02921 46.62407 76.21192 67.19033 13.17994 -6.99081 9.2552 32.96602 -52.33328 88.83282 -122.70121 -20.24282 11.4979 12.47411 3.27788 13.64631 -21.53428 4.19112 -1.58553 -0.33611 3.05098 4.82187 6.19632 -10.7914 8.80531 4.94452 6.36673
-0.34676 0.57128 -0.35157 229.27729 0 -5.8292 -2.26245 1.26058 1.47224 -16.06718 -5.31748 -1.41078 10.22687 -11.06091 46.58468 76.25566 66.89294 12.72491 -7.28752 9.82978 32.87452 -52.34823 88.92153 -122.16133 -19.949 11.44637 12.20503 3.2883 12.34741 -23.08249 5.22977 -1.82218 -0.67506 3.06604 4.56392 5.27644 -10.37322 8.34429 5.16037 7.33969
-0.34433 0.57126 -0.3532 228.82154 0 -5.73443 -2.19904 1.03236 1.55924 -16.41668 -5.46844 -1.3988 10.5396 -11.10053 46.5692 76.30052 66.62989 12.28746 -7.55533 10.31805 32.81443 -52.36693 88.99916 -121.79215 -19.62373 11.4417 11.91988 3.30872 11.18618 -24.37198 6.20555 -2.05343 -1.07592 3.09511 4.3332 4.52679 -9.97962 7.90306 5.35267 8.2173
-0.34183 0.57128 -0.35474 228.33444 0 -5.63883 -2.1397 0.78505 1.6443 -16.84813 -5.63221 -1.38553 10.93522 -11.12677 46.55974 76.35003 66.4219 11.74629 -7.85223 10.89173 32.76961 -52.38811 89.09477 -121.39611 -19.32188 11.4238 11.66533 3.33942 9.96541 -25.66143 7.25314 -2.32534 -1.53779 3.08181 4.08265 3.66009 -9.51509 7.42339 5.57427 9.2039
-0.33955 0.57122 -0.35648 227.93312 0 -5.52786 -2.05105 0.56756 1.73585 -17.14054 -5.78266 -1.37529 11.18549 -11.17685 46.52661 76.38889 66.07739 11.42139 -8.10004 11.32057 32.67592 -52.40197 89.15748 -120.96536 -18.98709 11.40891 11.35185 3.34204 8.80619 -27.08053 8.16941 -2.50849 -1.8282 3.15435 3.86187 2.96527 -9.19306 7.01828 5.74251 9.99818
-0.33773 0.57096 -0.35868 227.74845 0 -5.39227 -1.90264 0.43933 1.83466 -17.00922 -5.87991 -1.37554 10.99288 -11.30477 46.44047 76.40746 65.35654 11.7048 -8.20081 11.31105 32.45286 -52.40044 89.11858 -120.55632 -18.53486 11.43517 10.88198 3.27109 7.87927 -28.77287 8.73039 -2.46361 -1.71006 3.46865 3.73151 2.82597 -9.27997 6.8328 5.75366 10.21881
-0.33611 0.57062 -0.36108 227.64651 0 -5.24346 -1.7287 0.3434 1.94131 -16.7337 -5.96283 -1.37845 10.65207 -11.45442 46.33402 76.41457 64.50773 12.20116 -8.25023 11.14994 32.1862 -52.39165 89.04773 -120.11873 -18.05116 11.46551 10.35077 3.17333 7.02575 -30.56387 9.14866 -2.32764 -1.42097 3.86921 3.63347 2.87156 -9.50868 6.72215 5.70919 10.24004
